<?xml version="1.0" standalone="no"?>
<!DOCTYPE svg PUBLIC "-//W3C//DTD SVG 20010904//EN"
 "http://www.w3.org/TR/2001/REC-SVG-20010904/DTD/svg10.dtd">
<svg version="1.0" xmlns="http://www.w3.org/2000/svg"
 width="189.000000pt" height="189.000000pt" viewBox="0 0 189.000000 189.000000"
 preserveAspectRatio="xMidYMid meet">
<metadata>
Created by potrace 1.11, written by Peter Selinger 2001-2013
</metadata>
<g transform="translate(0.000000,189.000000) scale(0.100000,-0.100000)"
fill="#000000" stroke="none">
<path d="M826 1721 c-86 -33 -140 -79 -204 -176 -89 -133 -129 -271 -118 -406
19 -242 25 -266 84 -323 17 -15 36 -41 42 -57 7 -16 17 -29 22 -29 6 0 8 -9 5
-20 -3 -11 -1 -20 5 -20 14 0 34 -23 42 -46 4 -14 0 -27 -14 -39 -11 -10 -25
-35 -30 -56 -11 -40 -12 -41 -95 -54 -22 -4 -44 -10 -50 -15 -5 -4 -35 -17
-65 -28 -275 -98 -289 -105 -357 -167 -71 -63 -93 -112 -93 -208 l0 -77 946 0
946 0 -7 42 c-18 107 -35 150 -83 205 -55 64 -97 91 -210 132 -45 17 -115 49
-155 71 -41 22 -76 40 -78 40 -2 0 -4 -35 -5 -77 0 -54 -7 -97 -22 -141 -12
-34 -22 -75 -22 -91 0 -17 -4 -33 -10 -36 -5 -3 -10 3 -10 15 0 32 -47 106
-89 140 -27 23 -33 33 -23 39 8 4 13 11 13 15 -1 8 26 72 55 127 29 56 31 100
6 122 -30 27 -35 20 -29 -45 6 -79 -8 -111 -74 -173 -58 -55 -102 -75 -162
-75 -37 0 -43 3 -42 19 0 10 9 31 19 45 13 20 15 38 11 70 -6 38 -4 44 19 60
14 9 26 14 26 11 0 -11 76 34 99 59 14 14 30 26 36 26 15 0 41 48 32 57 -4 4
-13 1 -19 -5 -9 -9 -16 -8 -29 4 -20 18 -43 10 -35 -13 3 -8 1 -11 -4 -8 -6 3
-10 2 -10 -2 0 -18 -59 -32 -85 -20 -30 14 -31 21 -5 47 26 26 26 50 -1 50
-12 0 -23 8 -26 20 -3 11 -12 20 -19 20 -8 0 -14 5 -14 10 0 6 15 10 33 10 18
0 41 6 50 13 15 10 8 11 -39 9 -49 -4 -55 -2 -52 14 2 10 14 21 28 24 14 4 24
12 23 18 -3 12 4 14 57 16 15 1 25 7 25 16 0 8 -11 16 -25 18 -14 2 -29 8 -34
13 -6 5 -18 9 -27 9 -29 0 -47 65 -48 180 -2 91 -5 108 -23 127 -12 13 -30 25
-40 29 -11 3 -17 11 -15 18 3 7 1 19 -3 26 -8 13 3 48 19 60 4 3 12 34 20 70
7 36 18 70 24 77 18 18 100 37 129 30 43 -11 80 -58 142 -181 32 -64 60 -115
62 -113 2 1 -1 31 -6 66 -9 67 -2 171 10 150 4 -6 13 -9 18 -5 10 6 16 -16 25
-83 3 -20 40 -42 55 -32 11 6 7 23 -15 81 -46 119 -123 190 -205 190 -22 0
-37 7 -46 20 -9 15 -19 19 -36 14 -32 -8 -56 29 -30 44 22 12 13 26 -30 46
-46 21 -78 19 -160 -13z m199 -91 c4 -6 -5 -10 -20 -10 -15 0 -24 4 -20 10 3
6 12 10 20 10 8 0 17 -4 20 -10z m-248 -1289 c-7 -2 -24 -13 -39 -23 -16 -11
-28 -16 -28 -11 0 4 8 13 18 20 18 11 23 45 9 59 -4 4 -7 12 -7 18 0 6 14 -5
30 -24 18 -22 24 -36 17 -39z m76 -32 c20 -17 37 -35 37 -42 0 -6 -13 2 -30
18 -25 24 -30 26 -30 11 0 -15 -3 -16 -14 -7 -14 12 -18 51 -6 51 3 0 22 -14
43 -31z m287 16 c0 -7 -77 -45 -92 -45 -24 0 33 31 90 49 1 1 2 -1 2 -4z
m-470 -49 c0 -3 -4 -8 -10 -11 -5 -3 -10 -1 -10 4 0 6 5 11 10 11 6 0 10 -2
10 -4z m-100 -47 c0 -5 -7 -9 -15 -9 -9 0 -12 6 -9 15 6 15 24 11 24 -6z"/>
<path d="M1362 1271 c-10 -6 -10 -14 -2 -35 5 -15 10 -37 10 -49 0 -16 -6 -12
-27 21 l-27 42 -12 -28 c-7 -15 -13 -22 -13 -16 -1 6 -8 11 -17 11 -12 0 -14
-6 -8 -26 3 -14 12 -64 19 -111 7 -47 14 -76 15 -65 1 12 4 15 7 7 3 -7 0 -27
-6 -44 -10 -29 -9 -34 16 -54 23 -19 26 -26 17 -41 -6 -10 -17 -18 -25 -18
-16 0 -27 -20 -28 -49 -1 -14 10 -7 44 28 25 27 45 56 45 65 0 9 4 21 10 27
11 11 15 191 4 218 -5 14 -4 17 5 12 10 -6 11 3 6 40 -9 61 -17 75 -33 65z
m-34 -176 c7 -15 8 -25 2 -25 -6 0 -10 -7 -10 -15 0 -8 -4 -15 -10 -15 -5 0
-9 18 -7 40 2 46 9 50 25 15z"/>
<path d="M1002 1248 c-19 -19 -14 -26 19 -33 29 -7 30 -8 14 -25 -15 -17 -15
-23 -4 -50 8 -16 22 -33 31 -36 19 -6 58 23 58 43 0 16 12 17 28 1 6 -6 15 -9
18 -5 4 3 -10 14 -30 23 -20 10 -36 24 -36 31 0 18 41 26 73 14 32 -12 36 0 9
27 -15 15 -36 19 -94 20 -46 1 -79 -3 -86 -10z"/>
<path d="M1005 950 c-3 -5 1 -10 9 -10 8 0 18 5 21 10 3 6 -1 10 -9 10 -8 0
-18 -4 -21 -10z"/>
<path d="M1110 946 c0 -3 21 -18 48 -36 l47 -30 -39 35 c-35 31 -56 43 -56 31z"/>
<path d="M1110 870 c0 -5 5 -10 10 -10 6 0 10 -4 10 -10 0 -5 -11 -10 -25 -10
-16 0 -25 -6 -25 -16 0 -11 6 -14 20 -9 13 4 22 1 26 -9 3 -9 14 -16 24 -16
25 0 20 71 -6 81 -27 11 -34 10 -34 -1z"/>
<path d="M1270 772 c0 -10 -13 -34 -30 -52 -30 -33 -37 -50 -22 -50 12 0 62
82 62 102 0 10 -2 18 -5 18 -3 0 -5 -8 -5 -18z"/>
<path d="M1244 398 l-29 -33 33 29 c17 17 32 31 32 33 0 8 -8 1 -36 -29z"/>
</g>
</svg>
